<?xml version="1.0" encoding="utf-8"?>
<!-- Generator: Adobe Illustrator 23.0.3, SVG Export Plug-In . SVG Version: 6.00 Build 0)  -->
<svg version="1.1" id="Ebene_1" xmlns="http://www.w3.org/2000/svg" xmlns:xlink="http://www.w3.org/1999/xlink" x="0px" y="0px"
	 viewBox="0 0 595.3 841.9" style="enable-background:new 0 0 595.3 841.9;" xml:space="preserve">
<style type="text/css">
	.st0{fill:#A2A9A1;}
	.st1{fill:#252122;}
	.st2{fill:#D32B31;}
	.st3{fill:#2B2829;}
	.st4{fill:#D22229;}
	.st5{fill:#FCFBFB;}
	.st6{fill:none;}
</style>
<path class="st0" d="M66.1,314.9c-0.3-0.8-0.5-1.5-0.9-2.5c3.8-0.9,5.8,3,8.9,3.3c1.6-1.9-0.8-3.3,0.1-5c1.5-1.2,3-0.5,4.5,0.2
	c1.4,0.7,2.8,1.3,4.3,1c6.6-1.1,12.9,0.1,19,2.6c1.6,0.7,3.4,0.8,4.9,0.2c4.7-1.9,8.1,0.5,11.3,3.2c18.5,16,36.4,32.8,56.8,46.2
	c14,9.2,25.3,10.7,34.7-5c1.4-2.3,3.1-4.3,4.3-6.7c3-6.1,6.9-11.7,8.9-18.3c0.7-1.3,1.5-2.6,2.1-3.9c2.9-5.6,3.8-12.5,7.4-17.2
	c8.9-11.7,18.6-23.3,35.6-22.9c0.8,0,1.6-0.4,2.4-0.7c6.1-2.7,12.6-2.7,19.1-1.9c2.6,0.3,5.2,1,7.9,0.2c2.1,1.9,4.8,1.2,7.1,1.5
	c18.8,2.5,33.6,12.2,47.2,24.8c6.2,5.8,12.5,11.9,20.2,15.9c3.7,5,8.6,8.7,13.8,11.9c3.5,2.1,6.9,1.4,10-1.4
	c5.5-4.9,9.6-10.8,11.9-17.6c3-8.5,9-14.1,15.7-19.4c1.4-1.1,2.8-2.3,4.1-3.5c2-0.2,4-0.1,5.9-0.6c15.2-4,29.8-2,44.6,2.7
	c12.9,4.1,23.9,11.5,35.3,18.3c12.6,7.5,24.2,15.8,31.9,28.7c0,1.7,0,3.3,0,5c-2.8,0.3-4.3,2.9-6.7,3.9c-9.9,4.4-18.1-0.4-26.4-4.6
	c-11.2-5.7-21.7-13.1-34-16.5c-4.4,1.8-5.8,5.8-7.3,9.3c-8.5,19.8-25,30.3-44.1,37.3c-11.2,4.1-23.3,3-35.1,2.2
	c-2-0.1-4-0.4-5.9-0.6c-7.1,0-13.9-1.7-20.7-3.5c-11.2-3.5-21.8-8-30.6-16.2c-3.5-3.3-7.9-5.4-12.3-7.5
	c-7.4-3.4-11.6-10.2-16.6-16.3c-1.1-1.4-1.9-3.2-3.8-3.6c-2.9,0.6-3.5,3.1-4.5,5.1c-5.9,12.1-12.3,23.8-20.2,34.9
	c-11.7,16.5-27.2,27-46.4,31.5c-20.6,4.9-41.7,6.3-62.6,1.2c-23.8-5.8-44-18.5-63.1-33.4c-13.7-10.7-26-22.8-38.2-35.1
	c-2.8-2.8-5.5-5.8-7.7-9.1c-1.4-2-2.3-4-0.9-6.5c-4-1.6-1.4-7.5-6-8.5c0-0.3,0-0.7,0-1c1.5-0.5,4.1,1.8,4.3-1.6
	c1.9-0.3,2.8,1.5,4.9,1.6c1.1,0,1.8-2.3,3.7-2c1.4,1.7,2.7,3.5,5.9,4C69.3,316.8,68.1,315.4,66.1,314.9z"/>
<path class="st1" d="M427.4,299.9c-1.4,1.1-2.7,2.3-4.1,3.5c-6.7,5.3-12.7,10.9-15.7,19.4c-2.4,6.7-6.5,12.7-11.9,17.6
	c-3.1,2.8-6.6,3.5-10,1.4c-5.2-3.2-10.1-6.9-13.8-11.9c5.8-16.8,14-32.6,20.2-49.6c-6.6-1.3-12.5-0.1-18.3,1.2
	c-9.8,2.1-19.6,2.4-29.3,0.3c-15.5-3.4-29.7-22.1-22.1-41.6c12-31,28.4-59.8,46.1-87.8c13.1-20.7,26.3-41.3,44.2-58.3
	c8.5-8.1,17.6-15.2,29-19c0.7-0.2,1.2-0.4,1.4-1.2c5,0,10,0,15,0c1.5,1.5,3.6,1.6,5.4,2.3c14.4,5.4,20.9,18.7,16.3,33.3
	c-2.4,7.7-6.5,14.2-13.2,18.8c-4.5,3.1-9.2,5.9-13.9,8.8c-23.9,14.8-44.8,32.8-60.7,56.2c-6.2,9.2-12.3,18.5-18.7,28.2
	c16.3-0.6,31.7-2.1,47.2-1c2.1-1.4,2.9-3.9,4.2-6c13.7-20,31.3-36.2,50.7-50.6c4.3-3.2,9-5.8,14.2-7c3.7-0.9,7.2-0.2,9.4,3
	c2.4,3.5-1.2,5.3-3,7.5c-10.2,11.9-19.8,24.2-26.3,38.6c-2.1,4.8-4.5,9.7-3.8,15.2c2.3,1.8,4.9,2.4,7.5,2.9
	c14.8,2.8,28.8,8.2,42.7,13.8c4.5,1.8,8.7,4.1,12.4,7.3c3.8,3.3,4.6,7,2.9,11.3c-2.1,1.6-4.3,1.9-6.4,2.1
	c-6.8,0.6-13.6,1.3-20.4,1.4c-17,0.3-33.9,1.6-50.5,5.9c-8.5,2.2-15.7,5.8-18.7,15.2C433.3,287.5,430.1,293.6,427.4,299.9z"/>
<path class="st2" d="M147,554.9c1.1-13.1,0.2-26.3,0.5-39.4c0.1-2.6,0.5-5.3-0.5-8.1c-1.7-0.3-3.4-0.6-5.2-0.9
	c-1.1-1.8-0.7-3.6-0.4-5.6c4.7-1.4,9.5-0.9,14.1-0.9c1.5,1.3,0.5,2.9,1.1,4.5c0.6-0.3,1.1-0.4,1.3-0.7c3.9-4.3,8.6-5.3,14.1-3.9
	c5.6,1.4,8,5.6,9.2,10.8c3.7,16.5-4.6,27.3-20.9,27.4c-0.8,0-1.6,0-3.2,0c0,5.8,0,11.4,0,17C153.7,554.9,150.3,554.9,147,554.9z
	 M157.4,529.2c8.6,2.4,12.9-0.2,13.9-8.4c0.3-2.1,0.2-4.3,0-6.4c-0.3-3.5-1.3-6.8-5.4-7.2c-4.2-0.4-6.3,2.6-7.5,6
	C156.4,518.4,157.1,523.9,157.4,529.2z"/>
<path class="st3" d="M97.5,440c-3.2,11.6-6.5,22.9-9.6,34.4c-3.8,0-7.4,0-11.4,0C72.2,457.7,68,441,63.7,424c3.7,0,6.8,0,10.4,0
	c2.7,10.6,5.4,21.3,8.1,32c0.5,0.1,1,0.1,1.5,0.2c3-10.7,6-21.3,9-32.2c3.4,0,6.7,0,10.4,0c3.2,11.4,6.3,22.9,9.9,35.8
	c3.1-12.8,5.9-24.3,8.7-35.8c3.3,0,6.2,0,9.8,0c-4.3,17-8.6,33.7-12.8,50.5c-4.1,0-7.9,0-12.2,0C103.5,462.9,100.5,451.4,97.5,440z"
	/>
<path class="st3" d="M482.7,436.4c0.2-3.2,0.5-6.1-0.2-9.2c-1.9-0.3-3.7-0.7-5.4-1c-1.3-2-0.6-3.9-0.5-6.3c5.2,0,10.2,0,15.6,0
	c0,15.3,0,30.9,0,46c2,2.2,4.3,1.5,6.2,2.1c1.1,1.6,0.5,3.4,0.4,5.6c-4.8,1-9.7,1.2-14.9,0.9c-0.3-1.3-0.5-2.6-0.8-4
	c-0.6,0.3-1,0.4-1.3,0.7c-4.4,4.4-9.6,5.1-15.2,3c-5.3-2-7.2-6.5-7.9-11.8c-0.6-5-0.6-10,1.5-14.7
	C463.7,439.8,469,437.1,482.7,436.4z M482.8,445.2c-8.7-2.5-13.4,0.7-14,9c-0.1,1.8-0.1,3.6,0,5.5c0.2,3.7,1.1,7.2,5.5,7.6
	c4.4,0.3,6.5-2.7,7.6-6.5C483.5,455.7,482.7,450.6,482.8,445.2z"/>
<path class="st2" d="M286.8,498.9c0-2.9,0-5.8,0-8.9c-2-0.4-3.9-0.9-5.9-1.3c-0.8-1.8-0.7-3.5-0.1-5.6c5-0.8,10.1-1.1,15.7-0.7
	c0,15.8,0,31.4,0,47.1c2.4,0.5,4.3,0.9,6.1,1.3c0.7,1.9,0.4,3.7,0.3,5.8c-4.9,0.8-9.7,1-14.2,0.9c-1.5-1.3-0.5-3-1.2-4.6
	c-2.7,2.2-4.9,4.4-8.2,5c-8.3,1.5-14.3-2.6-16.2-11C259.4,510.2,267.9,500,286.8,498.9z M286.9,507.8c-8.7-2.3-13.3,0.8-14,9.2
	c-0.1,1.8-0.1,3.7,0,5.5c0.3,3.5,1.1,6.9,5.2,7.5c4.4,0.7,6.7-2.3,7.9-6C287.8,518.5,287,513.1,286.9,507.8z"/>
<path class="st4" d="M476.1,498.7c0,10.1,0,19.7,0,29.1c2.5,1.7,5.2,0.2,7.8,1.4c0.3,2.5,0.4,5-0.2,7.8c-2.4,0.2-4.7,0.3-7.5,0.5
	c0,4.4,0,8.7,0,13.2c-3.3,0-6,0-9,0c-1.3-4.1,0.1-8.5-0.9-13.3c-6.4,0-13,0-19.8,0c-0.6-2.9-1.2-5.3-1.8-8
	c6.3-10.2,12.7-20.5,19.1-30.8C467.8,498.7,471.6,498.7,476.1,498.7z M466.8,507.7c-4.6,7.6-8.5,13.9-12.9,21.2
	c5.1-0.4,9,0.5,12.9-0.7C466.8,521.7,466.8,515.5,466.8,507.7z"/>
<path class="st2" d="M356.1,528.5c5.3,2.2,8.8,0.8,10.9-4c1.9-4.1,1.4-8.5,1.4-12.8c0-3.8,0-7.6,0-11.4c3.3-0.9,6.1-0.4,9.4-0.4
	c0,9.8,0,19.5,0,29.4c2.5,0.6,4.5,1.1,6.5,1.5c0.7,1.8,0.5,3.4,0.2,5.7c-4.9,0.7-9.9,1.2-15.2,0.8c-0.1-1.8-0.3-3.2-0.5-5.3
	c-3.4,4-7.3,6.2-12.3,6c-6.8-0.2-10.6-3.5-10.9-10.3c-0.3-6.6-0.1-13.3-0.1-20.2c-2.2-0.5-4.1-0.8-6-1.2c-1-1.9-0.8-3.6-0.3-5.4
	c4.3-1.3,9.8-1.5,15.5-0.6C356,509.7,354,519.4,356.1,528.5z"/>
<path class="st3" d="M453.9,474.3c-3.4,0.4-6.2,0.5-9.6-0.1c0-7.4,0.1-14.9,0-22.3c0-2.9,0.6-6.5-3.5-7.2c-3.8-0.7-6.3,1.5-8,4.7
	c-1.4,2.7-1.7,5.7-1.7,8.7c0,5.3,0,10.6,0,16.1c-3.3,0.7-6.2,0.5-9.5,0.1c0-9.8,0-19.4,0-28.6c-1.9-2-4.2-1.3-6.1-2
	c-1-1.8-0.6-3.7-0.2-5.7c4.8-1.3,9.6-0.8,14-1c2,1,0.5,3.1,2,4.3c3.3-3.1,7.2-5.1,12-4.9c6.3,0.3,10.3,3.4,10.5,9.7
	C454.2,455.4,453.9,464.7,453.9,474.3z"/>
<path class="st2" d="M140.4,487.1c-0.1,2.3-0.3,4.8-0.5,7.6c-3.3-0.3-6.3-0.8-9.4-0.8c-3.7-0.1-7.2,0.9-7.9,5.2
	c-0.7,3.9,2.2,5.5,5.3,6.9c2.7,1.2,5.5,2.3,8.2,3.7c9.9,5.4,10.3,18,1.2,24.7c-4.7,3.4-15.5,5.1-23.6,2.2c-0.7-2.8,0.3-5.4,0.4-8.3
	c4.3,0.4,8.2,1.5,12.2,1c3.4-0.4,6.2-1.4,6.9-5.3c0.6-3.6-1.6-5.6-4.4-6.9c-2.9-1.3-5.8-2.4-8.7-3.8c-5.7-2.8-8.5-7.3-7.9-13.7
	c0.6-6.1,3.9-10.1,9.5-12.3C127,485.3,134.5,485.1,140.4,487.1z"/>
<path class="st3" d="M415.4,468.2c0.9,1.9,0.4,3.6,0.3,5.5c-5,1-9.8,1.2-14.4,0.9c-2-1.1-0.3-3.3-1.9-4.7c-2.6,3.3-6,5-10.2,5.4
	c-7.6,0.7-12.1-3.2-12.4-10.8c-0.1-3.3,0-6.7,0-10c0-3.1,0-6.3,0-9.2c-2-1.5-4.1-0.9-6.1-1.7c-0.9-1.7-0.6-3.5-0.3-5.5
	c5-1.6,10-1,15.4-1.1c1.2,9.9-0.9,19.7,1.2,28.9c5.8,2,9,0.5,11.3-4.6c1.9-4.3,1.2-8.8,1.3-13.3c0.1-3.5,0-6.9,0-10.7
	c3.1,0,5.9,0,9.1,0c0,9.7,0,19.4,0,28.7C411,468.2,413.5,467.3,415.4,468.2z"/>
<path class="st2" d="M422,538c-11.8-0.1-18.5-7-18.5-19.3s8.5-21,20.6-20.9c11.8,0.1,19,7.6,18.9,19.8
	C442.9,529.8,434.4,538.1,422,538z M433.2,517.8c0-7.4-3.7-11.9-9.8-11.8c-6,0-10.2,4.8-10.3,11.7c-0.1,7.4,3.5,11.9,9.6,12
	C429,529.9,433.1,525.1,433.2,517.8z"/>
<path class="st2" d="M234.9,537c-3.5,0.6-6.3,0.6-9.6,0c0-9.8,0-19.5,0-28.8c-2.1-1.9-4.4-0.8-6.1-2c-0.7-1.8-0.7-3.6,0.1-5.6
	c4.7-1,9.5-0.8,14.1-0.7c1.4,1.4,0.3,3,1,4.5c0.4-0.2,0.9-0.2,1.2-0.5c2.8-3.2,6.4-4.7,10.6-4.8c6.6-0.2,10.8,2.9,11.2,9.4
	c0.5,9.4,0.1,18.9,0.1,28.5c-3.1,0.8-6,0.5-9.4,0.2c0-7.8,0-15.4,0-23c0-2.6,0.3-5.6-3-6.7c-3.4-1.1-5.7,1-7.6,3.4
	c-2,2.6-2.6,5.7-2.6,8.9C234.9,525.4,234.9,531.1,234.9,537z"/>
<path class="st2" d="M325.1,514.5c0-8.5-3.2-9.4-17.9-5.6c-0.3-2.3-0.7-4.5-1.1-7.4c7.5-2.4,14.9-3.7,22.4-0.9
	c4.7,1.7,6.4,5.6,6.5,10.2c0.1,6.1,0,12.3,0,18.3c2,1.8,4.5,0.6,6.3,2.1c0.6,1.5,0.4,3.2,0.1,5.5c-4.7,0.8-9.6,1.1-14.2,0.8
	c-2-1.1-0.4-3-1.9-4.3c-3,3-6.5,5-11,4.9c-4.6-0.1-8.3-1.6-9.9-6.1s-0.6-8.6,2.8-11.9c3.4-3.3,7.6-4.7,12.2-5.2
	C321.2,514.7,323,514.6,325.1,514.5z M325.2,521.1c-3.6-0.6-6.7-0.1-9.5,1.5c-2.1,1.1-3.3,3-2.4,5.3c1,2.5,3.3,3.2,5.7,2.5
	C323.3,529,325.4,526,325.2,521.1z"/>
<path class="st2" d="M214.6,529.7c1.6,0.3,3.4,0.6,5.2,1c1.1,1.9,0.8,3.8,0.2,5.9c-4.7,0.8-9.5,1.2-14.1,0.8
	c-1.3-1.3-0.4-2.8-1.1-4.1c-0.4,0.2-0.9,0.2-1.2,0.5c-2.9,2.8-6.2,4.3-10.3,4.2c-4.3-0.1-8-1.3-9.6-5.6c-1.7-4.6-1-8.9,2.6-12.4
	c3.4-3.3,7.6-4.7,12.2-5.2c1.8-0.2,3.6-0.3,5.4-0.4c0.9-8.3-3.3-9.6-17.4-5.6c-0.8-2.3-1.3-4.7-0.9-7.5c5.9-2.1,11.9-3,18.1-2
	c7.3,1.3,10.3,4.8,10.5,12.2c0.1,5.8,0.1,11.6,0.2,17.4C214.2,529.2,214.4,529.4,214.6,529.7z M204.1,521c-3.7-0.2-6.8,0-9.6,1.7
	c-2.1,1.2-3.1,3.2-2.1,5.5c1,2.4,3.1,2.9,5.4,2.3C202.3,529.2,204.1,525.9,204.1,521z"/>
<path class="st3" d="M159.9,466.5c1.9,1.5,3.9,1.1,5.7,1.6c1.2,1.6,0.6,3.5,0.6,5.7c-4.8,1-9.7,1.1-14.3,0.9
	c-1.6-1.3-0.2-3.1-1.6-4.5c-2.7,3.3-6.2,5-10.4,5.1c-4.6,0.1-8.8-1-10.6-5.8c-1.8-4.6-0.7-8.8,2.9-12.3c3.5-3.4,8.1-4.4,12.7-5.1
	c1.6-0.3,3.3-0.3,4.9-0.5c0.5-8.3-3.7-9.5-17.3-5.4c-1.2-1-0.9-2.4-1.1-3.7c-0.2-1.1-0.2-2.3-0.3-3.9c7-2.4,14-3,21.1-1.3
	c4.9,1.2,7.5,5,7.6,11C160.1,454.5,159.9,460.6,159.9,466.5z M138.4,466.1c2.7,2.5,5.4,2.3,7.9,0.5c2.8-2,4.2-4.8,3.7-8.4
	C140.5,458.2,137.9,460,138.4,466.1z"/>
<path class="st3" d="M369.4,457.5c-7.6,0-15,0-22.4,0c-0.2,9.8,4.4,11.7,20.4,8.6c1,2.1,0.8,4.4,1,6.9c-7,2.4-13.8,3.2-20.8,1.2
	c-1.1-0.3-2.2-0.7-3.2-1.3c-7.5-4.4-10.2-17.4-5.6-27c4-8.3,13.2-11.9,22-8.5C367.4,440,370.7,447.2,369.4,457.5z M346.7,450.6
	c4.9,0,9,0,13.4,0c0-4.2-1.7-6.7-5.6-7C349.9,443.3,347.7,446,346.7,450.6z"/>
<path class="st3" d="M509.1,457.4c0.6,10.2,6.7,12.6,20.5,8.4c1,2.3,1.3,4.6,1.1,7.2c-6.2,2.3-12.4,2.9-18.7,1.8s-10.4-4.9-12-11.2
	c-1.1-4.4-1.3-8.9-0.2-13.3c2.6-10.6,10.5-15.6,21.4-13.4c8.1,1.6,12.4,9.9,10.5,20.5C524.3,457.4,516.9,457.4,509.1,457.4z
	 M509.2,450.7c4.7,0,9,0,13.4,0c0.1-4-1.5-6.6-5.5-7C512.5,443.2,510.1,445.7,509.2,450.7z"/>
<path class="st3" d="M253.6,457.6c-7.7,0-15.1,0-22.5,0c0,9.8,4.8,11.7,20.8,8.4c0.3,2.2,0.6,4.5,1,6.9c-7.1,2.3-13.8,3.2-20.8,1.4
	c-4.9-1.3-8.1-4.5-9.8-9.1c-2.1-6-2.1-12.1,0.2-18.1c3.4-8.7,11.7-12.6,21.3-10.1C251.4,439,255.1,446.3,253.6,457.6z M244.3,450.7
	c0.1-4.3-1.6-7-5.8-7.1c-4.6-0.1-6.8,2.5-7.3,7.1C235.6,450.7,239.9,450.7,244.3,450.7z"/>
<path class="st3" d="M300.3,474.5c-3.5,0-6.2,0-9.4,0c0-9.8,0-19.5,0-28.7c-2.3-1.8-4.5-0.4-6.4-1.6c-0.6-2.2-0.6-4.4,0.1-6.9
	c1.8-0.1,3.6-0.2,5.8-0.4c0.6-5.9,0.1-12.3,6.2-15.8c4.5-2.6,9.5-2.6,14.6-1.6c0.8,2.6-0.1,5-0.2,7.4c-10.1,0.3-11.2,1.3-10.5,10
	c2.5,0.1,5.1,0.3,8,0.4c0.9,2.3,0.5,4.6,0.3,6.9c-2.6,1.4-5.4,0.1-8.5,1.1C300.3,454.6,300.3,464.4,300.3,474.5z"/>
<path class="st3" d="M194.4,474.5c0-2.7,0-4.8,0-7.3c3.1,0.2,6,0.6,8.9,0.6c2.3,0,4.5-0.8,5-3.3c0.5-2.6-1.3-3.9-3.5-4.7
	c-1.3-0.5-2.5-0.9-3.7-1.4c-5.7-2.4-8.1-6-7.6-11c0.5-5.1,4.4-9.4,10-10.5c4.1-0.8,8.2-0.9,12.4,0.2c0.5,2.4,0.4,4.6-0.1,6.9
	c-4.2,0.5-9.1-2.5-12.1,2.4c-0.2,2.3,0.8,3.5,2.4,4.3c1.2,0.6,2.4,1,3.7,1.6c7,3,9.6,6.2,9.1,11.5c-0.5,5.7-4.9,9.9-11.8,11
	C202.8,475.6,198.7,475.5,194.4,474.5z"/>
<path class="st3" d="M189.5,437.2c0.4,2.6,0.3,4.7-0.4,6.8c-4.1,0.8-9.1-2.5-12,2.7c-0.1,3.6,2.5,4.2,4.8,5.2
	c8.7,3.7,11.3,7,10.3,13s-6.3,9.8-14.6,10.3c-3,0.2-6,0-8.9,0c-1.1-3-0.8-5.6-0.3-8.2c9.5,1.3,9.5,1.3,13.3-1.6
	c1.1-2.5-0.2-4.1-2.4-5.2c-1.2-0.6-2.5-0.9-3.7-1.4c-6.7-2.6-9.2-6.1-8.5-11.8c0.6-5.3,5.1-9.4,11.3-10.3
	C182,436.3,185.6,436.3,189.5,437.2z"/>
<path class="st3" d="M310.9,437.9c5.1-1.1,9.9-0.9,14.9-0.9c0.1,1.7,0.3,3.1,0.5,5.3c3-3.5,5.9-6.6,11.2-5.5
	c-0.1,2.8-0.3,5.6-0.5,8.5c-7.6,1.1-9.7,3.4-10.2,11c-0.2,3-0.1,6-0.1,9s0,5.9,0,9.1c-3.4,0-6.3,0-9.6,0c0-9.9,0-19.7,0-29.5
	c-2.1,0-3.7,0-5.4,0C310,442.8,310.7,440.5,310.9,437.9z"/>
<path class="st3" d="M270.4,437.1c1.3,2-0.5,3-0.1,5.3c3.8-2.6,6.4-7.1,11.6-5.6c0.7,2.8,0,5.7-0.1,8.5c-7.4,1-9.6,3-10,10.5
	c-0.4,6.1-0.1,12.2-0.1,18.2c-3.5,0.9-6.2,0.6-9.5,0.4c0-9.8,0-19.5,0-28.7c-2.1-2.1-4.6-1.2-6.5-2.2c-0.6-1.9-0.6-3.6,0.1-5.6
	C260.7,436.7,265.7,437,270.4,437.1z"/>
<path class="st3" d="M364.9,381.4c6.8,1.8,13.6,3.5,20.7,3.5c-4.8,10.2-8.9,20.8-18,29.1c-1.9-7.3-1.8-13.9-1.4-20.4
	C366.3,389.5,366.3,385.4,364.9,381.4z"/>
<path class="st4" d="M297.3,287.6c-2.6,0.8-5.3,0.1-7.9-0.2c-6.5-0.8-12.9-0.8-19.1,1.9c-0.8,0.3-1.6,0.7-2.4,0.7
	c-17-0.4-26.7,11.2-35.6,22.9c-3.6,4.7-4.4,11.6-7.4,17.2c-0.7,1.3-1.4,2.6-2.1,3.9c-25.1,4.1-49.3,1.2-72.4-9.9
	c-8.8-4.2-17.7-8.1-25.5-14.4c-15-12.2-24.8-28-33-45.1c-11-23-6.9-45.3,2.6-67.5c2.4-5.6,4.8-11.3,7.6-16.8
	c5.2-10.1,12.8-18.3,21.8-25c10.1-7.6,20.8-14.1,32.4-19.4c9.8-4.5,20-6.6,30.1-9.5c3.8-1.1,7.3-3.3,10.9-5
	c4.8-2.3,7.5-2.4,13.6-0.8c-0.3,2.8-1.1,5.4-2.9,7.7c-10.7,13.1-22.4,25.4-35.7,35.8c-16.6,12.9-25.6,30.2-30.4,50.2
	c-2.5,10.5-4.5,20.9-0.8,31.5c5.3,15.4,13.1,28.7,28.5,36.2c8.7,4.2,17.6,7.8,27.3,9.3c9.9,1.5,19.2-0.2,28.2-4.4
	c15.6-7.2,28.2-17.7,35.2-33.7c5.4-12.5,5.9-25.8,2-38.6c-4.9-16.7-23.1-22.9-38-14.2c-6.9,4-14.5,5.4-22.6,3
	c-10.2-3-16.8-18.3-14.8-28.9c3.9-20.8,15.3-35.4,36-41.8c6.2-1.9,12.5-1.6,18.8-1c14.5,1.4,28.1,5.9,40.5,13.1
	c19.6,11.4,29.1,29.6,32.3,51.4c3.9,25.9,0.8,51.2-9.2,75.4C303.1,277.1,300,282.3,297.3,287.6z"/>
<path class="st5" d="M66.1,314.9c2,0.5,3.1,1.9,4.7,4.1c-3.2-0.5-4.5-2.3-5.9-4C65.4,314.9,65.8,314.9,66.1,314.9z"/>
<rect x="143.4" y="593.1" class="st6" width="396.9" height="108.3"/>
<g>
	<path class="st6" d="M343.2,635.6c2.7-2.7,4.9-5.9,7.3-8.8c1.6-1.9,3.1-4.2,4.8-7.1c1.6-2.9,3.4-6.2,5.3-9.9
		c0.8-1.4,1.5-2.9,2.2-4.4c0.5-1.1,1.4-2.7,0.8-3.8c0-0.2-0.2-0.3-0.6-0.3c-0.5,0-1.4,0.8-2.8,2.4c-1.4,1.6-3.2,4-5.4,7.1
		c-2.5,3.4-4.9,6.9-7.3,10.3c-0.8,0.8-1.5,1.9-1.5,3c-0.9,2.3-1.7,4.4-2.5,6.4c-0.9,2.4-1.7,4.8-2.8,7.1l0.3,0.3
		C341.9,637.2,342.6,636.4,343.2,635.6z"/>
	<path class="st6" d="M282.6,660l0.3,0.7c-0.1-0.2-0.2-0.4-0.2-0.6C282.6,660.1,282.6,660.1,282.6,660z"/>
	<path class="st6" d="M385.6,646.8c0.3-0.5,0.6-0.9,0.8-1.3c1-0.8,1.9-1.7,2.7-2.7c0.9-1.1,2.2-2.8,1.4-4.3
		c-0.3-0.3-0.5-0.4-0.8-0.4c-1,0-2.2,1.2-3.8,3.5c-0.9,1.3-1.9,2.8-2.3,4.3c-0.1,0.5-0.3,1.1,0.2,1.4
		C384.4,647.8,385.3,647.3,385.6,646.8z"/>
	<path class="st4" d="M167.8,599c0.4-0.2,1-0.3,1.8-0.4c1-0.1,2.2-0.3,3.6-0.5c1.6,0.5,3.2,0.9,4.8,1.2c1,0.2,2,0.3,3,0.3
		c0.7,0,2.1,0.3,2.7-0.2c0.8-0.9,0.1-3.1,0.1-4.1c0.2-1.3,0.1-2.6,0.1-3.9c-0.1-0.9-0.4-1.5-0.8-2c-0.4-0.5-1-0.7-1.6-0.7
		c-0.7,0.3-1.2,0.5-1.5,0.7c-0.8-0.4-1.9-1.4-2.9-1.4l-1.8,0.5c-0.8-0.1-1.4-0.3-1.9-0.4c-0.5-0.2-1.1-0.3-1.9-0.4
		c-0.5,0-1.3-0.1-2.2-0.2c-3-0.3-6.1-0.1-9.1,0.2c-2.1,0.2-4,0.6-5.8,1.1c-1.5-0.2-3.1-0.2-4.2-0.3c-1.8,0.2-3.6,0.6-5.6,1.2
		c-1,0.3-1.9,0.8-2.6,1.4c-0.7,0.7-1.3,1.4-1.6,2.3c-0.7,1.7-0.7,3.8-0.8,5.6c-0.5,1.3-1.9,3.4-1,4.8c0.2,0.3,0.5,0.4,0.8,0.4
		c4.4-1.2,8.8-2.3,13.3-3.5c1.2-0.2,2.3-0.6,3.5-0.8l0.8-0.5c0.7,0.1,1.2,0.2,1.7,0.3c0.4,0.1,0.7,0.2,0.9,0.3l0.4,1.1
		c-0.1,1.4-0.1,2.9-0.1,4.3c-0.3,1.6-0.5,3.3-0.8,4.9c-0.2,1.3-0.4,2.8-1,4c0.2,0.5,0.4,1.1,0.6,1.6c0,0.3-0.1,0.7-0.3,1.3
		c-0.2,0.7-0.6,1.5-1,2.5c0,0.3,0.1,0.6,0.1,1c0.3,0.9,0,2.1-0.1,3c-0.1,0.7-0.3,1.6-0.4,2.5c-0.2,1.1-0.3,2-0.4,2.8
		c-0.4,2.8-0.3,5.7-0.6,8.5c-0.3,3.2-0.8,6.4-1,9.6c-0.2,3.9-0.2,7.7-0.4,11.6c0.3,3.4,0.6,6.6,0.8,9.8c0.3,0.6,0.5,1.3,0.8,1.9
		c-0.3,1.3-0.4,2.6-0.5,3.9c0,0.4,0.2,0.8,0.6,1c0.8,0.6,2,0.5,2.7,0c0.3-0.3,0.7-0.6,1.1-1c0.6-0.3,1.3-0.7,2.1-1.1
		c0.2-0.2,0.4-0.5,0.6-0.8c0.1-0.4,0.3-0.8,0.4-1.4c-0.2-0.6-0.4-1.3-0.6-2c0-0.9,0.1-2.1,0.1-3.7c0.1-1.4,0-2.8,0.2-4.2
		c0.2-1.7,0.6-3,0.3-4.7c-0.1-0.6-0.2-1-0.2-1.3c0.3-0.6,0.5-1.1,0.8-1.6c0.4-3.5,0.9-7,1.5-10.5c0.2-1.2,0.3-2.4,0.5-3.5
		c0-0.7-0.1-1.3-0.2-1.9c0.5-1.3,1.1-2.7,1.4-4.1c0.2-0.9,0.4-1.7,0.5-2.4s0.2-1.3,0.2-1.8c0.3-1.1,0.6-2.2,0.9-3.1
		c0.6-1.9,0.3-3.9,0.8-5.8c0.4-2.1,0.9-4.1,1.4-6.2c0.4-1.5,0.6-3.1,0.8-4.7c0.1-1.4,0.2-2.9-0.4-4.1c-0.4-1.2-1-3.2-2.2-4
		c-0.4-0.3-0.8-0.6-1.1-0.9c-0.3-0.3-0.5-0.6-0.7-0.9C167.2,599.4,167.4,599.2,167.8,599z"/>
	<path class="st4" d="M399.9,634C399.9,634,399.9,634.1,399.9,634C399.9,634.1,399.9,634,399.9,634z"/>
	<path class="st4" d="M463.3,658.4c-0.4,0.4-0.8,0.7-1.3,0.9c-2.6,1.3-4.3-1.3-5.1-3.4c-0.8-2.1-1.6-4.5-2.5-7
		c-0.8-1.3-1.7-2.3-2.7-2.9c-3.1-1.7-6.2-0.5-9.1,0.9c-1,0.6-1.9,1.2-2.7,1.8c-0.8,0.5-1.4,1.1-2,1.6c-0.4,0.4-0.7,0.8-1,1.2
		c-0.3,0.4-0.5,0.6-0.7,0.8c-0.8,0.6-1.5,1.2-2.1,1.9c-0.6,0.6-1.1,1.3-1.5,2c-1,0.8-1.9,1.5-2.6,2.2c-0.7,0.6-1.3,1.3-1.6,1.9
		c-0.4,0.4-0.8,1-1.3,1.2c-0.7-1-0.5-2.2,0.1-3.2c0.3-0.7,0.7-1.5,1.1-2.3c1.5-4.4,2.7-7.9,3.4-10.5c0.7-2.9,2.1-6.7,0-9.4
		c-1.3-1.7-3.9-1.6-5.8-1.1c-2.3,0.6-4.3,2-5.9,3.7c-2.1,2.2-4.2,4.5-6.3,6.6c-1.6,1.7-3,3.2-4.1,4.4c-1.6,1.8-3.3,3.5-5.1,5.1
		c-0.7,0.6-1.3,1.1-1.7,1.4c-0.4,0.5-0.7,1-1,1.3c-0.3,0.3-0.5,0.6-0.7,0.9c0,0,0,0,0,0c-0.3,0.2-0.6,0.4-1,0.6
		c-0.4,0.2-0.8,0.4-1,0.5c-1.1,0.6-2.3,1.1-3.7,1.5c-1.4,0.4-2.9,0.7-4.6,0.8c-1.4-0.3-3.1-0.6-4.3-1.4c-1.6-1-2.5-3.4-1.6-5.2
		c0.2-0.5,0.5-0.8,0.8-1.1c2.6-2.4,5.2-4.9,7.5-7.6c2-2.3,4.2-5,5.1-8l0.6-2c0.3-0.9,0.5-1.7,0.7-2.1c0.1-0.3,0.1-0.4,0.2-0.4
		c-0.2-1-0.4-1.8-0.5-2.6c-0.6-2-1.2-4.3-3.4-4.9c-1.5-0.5-3.2-0.3-4.7-0.1c-0.6,0.1-1.2,0.2-1.7,0.4c-1.1,0.7-2.3,1.3-3.3,2.1
		c-1,1.2-2,2.3-3,3.4c-0.9,1.1-1.9,2.2-2.8,3.1c-1.1,1.7-1.9,3.2-2.6,4.5c-0.7,1.4-1.2,2.5-1.6,3.4c-0.3,0.9-0.6,1.7-0.9,2.5
		c-0.3,0.8-0.5,1.4-0.6,2c-0.2,1.6-0.5,3.2-0.7,4.8c-1.2,0.9-2.3,1.8-3.1,2.7c-0.8,0.9-1.5,1.6-1.9,2.5c-1.8,0.4-3.3,0.7-4.6,0.9
		c-1.1,0-2.1-0.3-2.9-0.9c-1.5-1.1-2.1-2.9-2.6-4.7c-0.4-1.1-0.8-2.7-1.4-4.8c-0.4-1.7-1.5-4.2-3.6-3.5c-0.4,0.1-0.8,0.2-1.2,0.4
		l-2.3,0.9c-1.4,0.6-2.4,2.4-3.2,3.6c-1,1.7-1.9,3.4-2.7,5.2c-1.4,3-2.7,5.4-3.8,7.3c-1.1,1.8-2.1,3.1-2.9,3.8
		c-0.7,0.7-1.6,1.4-2.2,2.3c-0.3,0-0.5-0.2-0.6-0.5c-0.6-2.4,0-5.4,0.4-7.8c0.4-2.3,1-5,1.8-8.1c3.2-3.8,6.7-7.5,9.7-11.4
		c2.2-2.6,3.8-4.6,5-6.2c1.2-1.6,1.9-2.7,2.2-3.4c0.8-0.8,1.6-1.6,2.2-2.3s1-1.3,1.3-1.9c1.6-2.2,3.1-4.5,4.3-6.9
		c0.9-1.4,1.7-2.7,2.3-3.8c0.6-1.1,1.2-2,1.6-2.7c1.2-2.9,2.3-5.8,3.9-8.5c0.3-0.8,0.5-1.7,0.5-2.6c0.1-0.4,0.2-0.9,0.3-1.3
		c0.1-0.4,0.3-0.8,0.6-1.1c0.2-0.9,0.4-1.6,0.5-2.2c0.3-1.7,0.3-3.6-0.6-5.2c-0.6-0.9-1.4-1.3-2.5-1.3c-0.3,0.1-0.6,0.1-0.9,0.1
		c-0.3-0.4-0.7-0.8-1.3-1.3c-0.7,0-1.5,0.3-2.6,0.8c-1.1,0.6-2.3,1.4-3.8,2.6c-3.4,2.8-6.5,5.9-9.5,9.1c-0.9,1-2,2.4-3.3,4.2
		c-1.4,1.8-2.9,3.9-4.7,6.3c-0.6,1.2-1.3,2.2-1.8,3.1c-0.9,1.3-1.4,2.8-2.2,4.2c-0.3,0.6-0.6,1-0.9,1.4c-1,1.3-1.8,2.8-2.6,4.5
		c-0.7,1.7-1.4,3.6-1.9,5.6c-0.9,2.4-1.6,5-2.8,7.3c-1.2,4.1-2.2,8.3-3.4,12.4c0,0.4-0.3,0.9-0.7,1.5c-0.4,0.6-1,1.2-1.7,1.8
		c-0.3,0.4-0.7,0.8-1.2,1.2c-0.5,0.4-1.3,1-2.2,1.8c0,0.1,0.1,0.1,0.1,0.2c-1.3,1.1-2.7,2.2-3.8,3.5c-0.6,0.4-1.2,0.7-1.8,1
		c-1.5,0.9-3.1,1.8-4.6,2.7c-1.5,0.9-3,1.8-4.5,2.6c-2,0.6-4.1,0.9-6.1,1.6c-1.1-0.3-2-0.6-2.8-0.9c-0.8-0.3-1.4-0.6-1.8-0.9
		c-2.4-1.6-2-4.8-1.5-7.2c0.2-1,0.6-1.8,1-2.6c1.2-1.6,3-2.7,4.5-3.9c1.7-1.2,3.4-2.5,5-3.7c1.3-0.9,2.9-1.8,3.9-3.1
		c1.9-0.8,3.7-1.8,5.6-2.6c1.4-0.7,2.5-1.6,3.2-2.5c0.7-0.9,1.1-1.9,1.1-3.1v-3.4c-0.7-3.5-6.5-0.8-8.3,0c-2.5,1.2-4.2,2.3-5.1,3.4
		c-1.3,0.5-2.6,1.2-4.1,2.1c-1.5,0.8-2.9,1.9-4.4,3.1c-2.6,2-5.2,4.1-7.9,6.3c-0.6,0.4-1.3,0.9-2,1.3c-0.7,0.4-1.4,0.9-2,1.3
		c-1,0.8-3.3,2.2-3.3,3.7l-0.5,0.4c-0.4,0.1-0.7,0.2-1.1,0.3c-1.3,0.3-2.9,0.3-3.8-0.9c-1-1.6-0.7-3.5-1.1-5.3
		c-0.3-1.6-0.2-3.1-0.4-4.7c-0.1-0.7-0.2-1.2-0.3-1.5c-0.3-0.5-0.7-0.9-1.4-1.2c-2-0.8-4.6-0.5-6.1,1c-1.1,1-2,2.4-2.8,4.4
		c-0.3,0.4-0.7,0.9-1.1,1.3c-0.4,0.5-0.8,0.9-1.1,1.2c-0.8,1.1-1.6,2.3-2.4,3.4c-1.4,1.5-2.5,2.9-3.5,4c-1,1.2-1.8,2.1-2.6,2.9
		c-0.9,0.5-1.7,0.9-2.3,1.2c-0.6,0.4-1.2,0.7-1.6,0.9c-0.4,0.1-0.8-0.4-1-1.5c-0.8-2.9-0.4-6.2,0-9.1c0.2-1.4,0.6-3,1-4.8
		c0.5-1.4,0.9-2.8,1.4-4.2c0.4-1.5,0.9-2.9,1.2-4.3c0.4-0.9,0.7-1.7,1-2.5c0.2-0.6,0.4-1.1,0.5-1.5c0.2-0.9,0.3-1.9-0.3-2.7
		c-1-1-2.3-0.5-3.5-0.1c-1.3,0.4-2.6,1-3.9,1.6c-1,1.3-2,2.6-2.9,3.9c-0.9,1.3-1.9,2.6-2.8,3.8c-1.2,1.3-2.3,2.5-3.3,3.7
		c-1,1.3-2,2.5-2.9,3.7c-1.1,1.3-2.2,2.5-3.1,3.5c-0.9,0.9-1.8,1.7-2.5,2.3c0,0.2-0.1,0.4-0.2,0.6c-0.1,0.1-0.2,0.3-0.4,0.4
		c0,0,0,0,0,0c-0.4,0.4-0.9,0.7-1.4,1c-0.3,0.3-0.6,0.7-0.9,1c-0.3,0.3-0.6,0.6-0.9,1c-0.4,0.3-0.7,0.6-1.1,0.8c-2,1.3-4.4-1-5-2.8
		c-0.4-1.2-0.3-2.5-0.3-3.8c0-1.4,0-2.7,0.1-4.1c0-1.6-0.5-3.6-2.3-4c-1.8-0.3-3.9,0.6-5.4,1.6c-1.8,1.1-3.6,2.8-5.6,5
		c-0.4,0.2-0.7,0.4-1,0.6s-0.6,0.3-0.9,0.5c-0.4,0.3-1.1,0.8-2,1.6c-0.9,0.8-2.1,1.8-3.6,3.1c-1.2,1.1-2.4,2-3.4,2.7
		c-1.1,0.7-2.1,1.2-3,1.5l-0.5-0.5c1.2-1.6,2.2-3,3-4c0.8-1.1,1.3-1.7,1.6-2c2.4-2,4.4-3.7,5.8-5.1c1.4-1.4,2.4-2.6,2.8-3.5
		c1.3-0.9,2.5-1.8,3.6-2.9c0.3-0.4,0.7-0.9,1.1-1.4c1.3-0.9,2.5-1.8,3.5-2.8c1-0.9,1.8-1.8,2.5-2.7c1.3-0.9,2.4-1.7,3.5-2.4
		c1.7-1,3-4.3,1.2-5.8c-1.1-1.1-3.2-0.8-4.5-0.4c-1.9,0.5-3.7,1.4-5.5,2.3c-2.9,1.8-6.4,4.4-10.3,7.9c-1.2,1.1-2.7,2.4-4.2,3
		c-1,0.8-1.9,1.5-2.5,2.1c-0.7,0.6-1.2,1.1-1.5,1.5c-0.6,0.3-1.2,0.6-1.7,1c-0.5,0.3-0.9,0.8-1.2,1.3c-0.5,0.9-1.1,1.6-1.8,2.3
		l-5.9,3.7c-0.4,0.7-0.8,1.3-1.4,1.8c-0.3,0.4-0.5,0.7-0.7,0.9c0.4,0.8,0.8,1.6,1.1,2.3c0.4,0.7,0.6,1.3,0.9,1.9
		c0.2,0.3,0.3,0.6,0.4,0.8c0.3,0.6,0.2,1.3,0.1,1.9c-2.7,2.4-4.3,7.5-1.4,10.4c1.1,1,2.5,1.3,3.9,1.4c1.6,0.1,2.9-0.8,4.4-1.5
		c1.5-0.7,2.8-1.4,3.9-2.1c1.1-0.7,2.1-1.4,3-2.1c0.4-0.4,1.2-1.1,2.2-2c1-0.9,2.3-2.1,3.8-3.6c1.6-1.3,3.3-2.6,5-3.7
		c0.3-0.4,0.6-0.7,0.9-0.9c0.2-0.2,0.5-0.4,0.7-0.6c0.6,0.6,0.9,1.5,0.9,2.3c0.3,2.8,1.2,5.8,3.5,7.5c2.5,1.9,6.4,2.1,9.3,0.9
		c1.3-0.5,2.5-1.2,3.8-2.1c1.1-0.8,2.1-1.7,3.1-2.6c0.9-1,1.9-1.8,2.9-2.7c0-0.1,0-0.1-0.1-0.2c0.4-0.5,0.7-1,1-1.3
		c0.3-0.5,0.5-0.8,0.6-1.1l3.7-3.6l0.4-0.2c0.3,0,0.5,0.3,0.7,0.9c0.2,0.6,0.3,1.5,0.4,2.7c-0.1,0.2,0,0.9,0.1,2.1
		c0.2,1.1,0.4,2.8,0.8,4.9c0.3,2.2,1.1,3.9,2.3,5c2.4,2.2,6.3,2.1,9.1,0.6c1.6-0.7,3.1-1.9,4.6-3.6c1.2-1.2,2.4-2.5,3.6-3.8
		c1.2-1.2,2.3-2.6,3.5-3.9c1-1,1.9-2.2,2.9-3.2c0.5,0.5,0.8,1,1.1,1.5c0.2,0.5,0.4,1,0.5,1.5c0.7,2.5,2.3,4.8,4.8,5.7
		c2.5,1,4.8,0.6,7.2-0.5c1.7-0.7,3.7-1.8,6.3-3.2c0,0.1,0,0.1,0.1,0.2c0,0.3-0.1,0.8-0.3,1.5c-0.4,1.4-0.5,3.1-0.1,4.6
		c0.1,0.8,0.4,1.5,0.8,2.1c0.8,1.6,2.5,2.6,3.8,3.6c0.9,0.6,2,1.3,3.3,2.1c0.4,0.2,1,0.4,1.6,0.5c3.9,0.7,8.3-0.1,12-1.4
		c2.8-1,5.3-2.6,7.5-4.6c0.4-0.5,1-1,1.7-1.5c2.1-0.8,4-1.8,5.6-3.1c1.6-1.2,3.1-2.4,4.6-3.6c0,0,0,0.1,0.1,0.1
		c0.4-0.3,1.2-0.7,1.4-1.2c0.4,0,0.7,0.3,0.7,0.7c-0.2,0.6-0.4,1.2-0.5,1.7c0,0.3-0.1,0.5-0.1,0.8c-0.2,0.7-0.1,1.6-0.1,2.3
		c0.1,1,0.2,2,0.4,3c0.3,1.7,0.7,3.7,1.2,6c0.2,1.6,2.2,1.8,3.5,2c1.9,0.2,3.3,0.1,4.8-1.1c1.1-0.9,2.4-2.1,3.8-3.7
		c1.9-2.2,3.7-4.6,5.1-7.2c1.4-1.8,2.9-3.5,4.4-5.2h0.4c0.6-0.2,1.9,2.3,2.1,2.6c0.9,1.5,1.8,2.8,3.4,3.6c1.7,0.8,3.6,0.7,5.4,0.6
		c1.7-0.1,3.8-0.2,5.3-1c1-0.6,2-1.2,3.1-1.8c0.9-0.5,1.9-1.1,2.8-1.7c0,0.1,0,0.1,0.1,0.2c0.5-0.6,1-1.1,1.4-1.4
		c0.8-0.5,1.7-0.8,2.4,0.1c0.3,0.4,0.7,1.1,1.1,2c0.7,1.6,1.5,3.4,2.7,4.6c0.8,0.9,1.9,1.6,3.1,2c2.8,1.2,7,1,9.7-0.5
		c4.6,0,8.7-3.7,11.9-6.7c0,0,0,0,0,0.1c0.1-0.1,0.1-0.2,0.2-0.3c0,0,0,0,0,0c0,0,0,0,0,0c0.2-0.3,0.4-0.6,0.6-0.8
		c0.2-0.3,0.3-0.5,0.4-0.7c1.2-1,2.3-2.1,3.5-3c0.3-0.1,0.8-0.5,1.5-1.2c1.3-1.3,2.7-2.7,4.1-4c0.6-0.6,1.3-1.2,2.1-1.6
		c0.5-0.2,1.5-0.5,2-0.1c0.7,0.7,0.1,2.3-0.2,3.1c-0.2,0.7-0.7,1.5-0.7,2.2c-1,3.4-2,6.4-2.8,9c-0.8,2.6-1.6,4.7-2.2,6.4
		c0.1,1.2,0.2,2.3,0.4,3.4c0.2,2.2,3.8,1.8,5.2,1.4c0.7-0.1,1.3-0.5,1.9-0.9c0.6-0.5,1.1-1,1.7-1.5c0.6-0.6,1.1-1.1,1.7-1.6
		c2.2-2.1,4-4,5.5-5.5c1.5-1.6,2.5-2.8,3.1-3.8c0.3-0.5,0.8-1,1.7-1.4c0.9-0.5,2.3-1.5,4.2-3.1c1.5-1.2,3.1-2.5,5-3l0.6,0.2
		c1,1.2,1.8,2.2,2.5,3.1c0.7,0.9,1.3,1.6,1.9,2.1c0.7,1.3,1.3,2.4,1.8,3.3c0.5,0.9,1,1.5,1.3,1.8c0.6,0.8,1.4,1.4,2.3,1.8
		c2.9,1.3,5.9,0.3,8.2-1.7c1.5-1.2,3.1-2.3,4.6-3.6L463.3,658.4z M343.5,630.5c0.8-2,1.6-4.1,2.5-6.4c0-1.1,0.7-2.2,1.5-3
		c2.4-3.4,4.8-6.9,7.3-10.3c2.2-3.1,4-5.5,5.4-7.1c1.4-1.6,2.3-2.4,2.8-2.4c0.4,0,0.6,0.1,0.6,0.3c0.6,1.2-0.4,2.8-0.8,3.8
		c-0.7,1.5-1.4,2.9-2.2,4.4c-1.9,3.7-3.7,7-5.3,9.9c-1.7,2.9-3.2,5.2-4.8,7.1c-2.4,2.9-4.6,6.1-7.3,8.8c-0.6,0.8-1.3,1.6-2.2,2.3
		l-0.3-0.3C341.9,635.3,342.7,632.9,343.5,630.5z M282.6,660c0,0,0,0.1,0.1,0.1c0.1,0.2,0.2,0.4,0.2,0.6L282.6,660z M383.8,647.4
		c-0.4-0.3-0.3-1-0.2-1.4c0.4-1.6,1.4-3,2.3-4.3c1.6-2.3,2.8-3.5,3.8-3.5c0.3,0,0.5,0.1,0.8,0.4c0.8,1.5-0.5,3.2-1.4,4.3
		c-0.8,1-1.7,1.9-2.7,2.7c-0.2,0.4-0.5,0.8-0.8,1.3C385.3,647.3,384.4,647.8,383.8,647.4z"/>
</g>
</svg>
